<?xml version="1.0" encoding="UTF-8" standalone="no"?>
<!-- Created with Inkscape (http://www.inkscape.org/) -->

<svg
   xmlns:osb="http://www.openswatchbook.org/uri/2009/osb"
   xmlns:dc="http://purl.org/dc/elements/1.1/"
   xmlns:cc="http://creativecommons.org/ns#"
   xmlns:rdf="http://www.w3.org/1999/02/22-rdf-syntax-ns#"
   xmlns:svg="http://www.w3.org/2000/svg"
   xmlns="http://www.w3.org/2000/svg"
   xmlns:xlink="http://www.w3.org/1999/xlink"
   xmlns:sodipodi="http://sodipodi.sourceforge.net/DTD/sodipodi-0.dtd"
   xmlns:inkscape="http://www.inkscape.org/namespaces/inkscape"
   width="210mm"
   height="297mm"
   viewBox="0 0 744.09448819 1052.3622047"
   id="svg4171"
   version="1.1"
   inkscape:version="0.91 r13725"
   inkscape:export-filename="C:\wamp\www\tanks\ideas\touchpad3.png"
   inkscape:export-xdpi="60.601048"
   inkscape:export-ydpi="60.601048"
   sodipodi:docname="touchpad.svg">
  <defs
     id="defs4173">
    <linearGradient
       inkscape:collect="always"
       id="linearGradient6848">
      <stop
         style="stop-color:#d37f46;stop-opacity:1"
         offset="0"
         id="stop6850" />
      <stop
         style="stop-color:#a6511a;stop-opacity:0.96862745"
         offset="1"
         id="stop6852" />
    </linearGradient>
    <linearGradient
       id="linearGradient6822"
       osb:paint="solid">
      <stop
         style="stop-color:#000000;stop-opacity:1;"
         offset="0"
         id="stop6824" />
    </linearGradient>
    <marker
       inkscape:stockid="Arrow1Lstart"
       orient="auto"
       refY="0.0"
       refX="0.0"
       id="Arrow1Lstart"
       style="overflow:visible"
       inkscape:isstock="true">
      <path
         id="path5691"
         d="M 0.0,0.0 L 5.0,-5.0 L -12.5,0.0 L 5.0,5.0 L 0.0,0.0 z "
         style="fill-rule:evenodd;stroke:#ffffff;stroke-width:1pt;stroke-opacity:1;fill:#000000;fill-opacity:1"
         transform="scale(0.8) translate(12.5,0)" />
    </marker>
    <linearGradient
       id="linearGradient5681"
       osb:paint="solid">
      <stop
         style="stop-color:#000000;stop-opacity:1;"
         offset="0"
         id="stop5683" />
    </linearGradient>
    <filter
       inkscape:collect="always"
       style="color-interpolation-filters:sRGB"
       id="filter4239"
       x="-0.0072000184"
       width="1.0144"
       y="-0.0071999816"
       height="1.0144">
      <feGaussianBlur
         inkscape:collect="always"
         stdDeviation="0.50999856"
         id="feGaussianBlur4241" />
    </filter>
    <filter
       inkscape:collect="always"
       style="color-interpolation-filters:sRGB"
       id="filter4426"
       x="-0.024136041"
       width="1.0482721"
       y="-0.07080278"
       height="1.1416056">
      <feGaussianBlur
         inkscape:collect="always"
         stdDeviation="0.19903193"
         id="feGaussianBlur4428" />
    </filter>
    <filter
       inkscape:collect="always"
       style="color-interpolation-filters:sRGB"
       id="filter4446"
       x="-0.040714333"
       width="1.0814287"
       y="-0.11399963"
       height="1.2279993">
      <feGaussianBlur
         inkscape:collect="always"
         stdDeviation="0.23750027"
         id="feGaussianBlur4448" />
    </filter>
    <radialGradient
       inkscape:collect="always"
       xlink:href="#linearGradient6848"
       id="radialGradient6876"
       cx="297.91071"
       cy="973.04077"
       fx="297.91071"
       fy="973.04077"
       r="4"
       gradientTransform="matrix(1,0,0,0.875,0,121.63009)"
       gradientUnits="userSpaceOnUse" />
    <radialGradient
       inkscape:collect="always"
       xlink:href="#linearGradient6848"
       id="radialGradient6878"
       cx="305.61884"
       cy="980.96381"
       fx="305.61884"
       fy="980.96381"
       r="4.452579"
       gradientTransform="matrix(1,0,0,0.83248513,0,164.32603)"
       gradientUnits="userSpaceOnUse" />
    <radialGradient
       inkscape:collect="always"
       xlink:href="#linearGradient6848"
       id="radialGradient6880"
       cx="298.09708"
       cy="980.75348"
       fx="298.09708"
       fy="980.75348"
       r="4.1685143"
       gradientTransform="matrix(1,0,0,0.84856881,0,148.51666)"
       gradientUnits="userSpaceOnUse" />
    <radialGradient
       inkscape:collect="always"
       xlink:href="#linearGradient6848"
       id="radialGradient6882"
       cx="299.23187"
       cy="988.11761"
       fx="299.23187"
       fy="988.11761"
       r="4.108294"
       gradientTransform="matrix(1,0,0,0.75329014,0,243.77836)"
       gradientUnits="userSpaceOnUse" />
    <radialGradient
       inkscape:collect="always"
       xlink:href="#linearGradient6848"
       id="radialGradient6884"
       cx="308.63278"
       cy="988.78918"
       fx="308.63278"
       fy="988.78918"
       r="4.1685143"
       gradientTransform="matrix(1.2875614,0.13746457,-0.09008423,0.84377358,0.32343849,112.04892)"
       gradientUnits="userSpaceOnUse" />
    <radialGradient
       inkscape:collect="always"
       xlink:href="#linearGradient6848"
       id="radialGradient6886"
       cx="317.98035"
       cy="987.34778"
       fx="317.98035"
       fy="987.34778"
       r="3.3094907"
       gradientTransform="matrix(1,0,0,1.1430576,0,-141.24756)"
       gradientUnits="userSpaceOnUse" />
    <radialGradient
       inkscape:collect="always"
       xlink:href="#linearGradient6848"
       id="radialGradient6888"
       cx="314.2504"
       cy="983.83563"
       fx="314.2504"
       fy="983.83563"
       r="3.5298839"
       gradientTransform="matrix(1,0,0,1.1940855,0,-190.94821)"
       gradientUnits="userSpaceOnUse" />
    <radialGradient
       inkscape:collect="always"
       xlink:href="#linearGradient6848"
       id="radialGradient6890"
       cx="316.14597"
       cy="977.75208"
       fx="316.14597"
       fy="977.75208"
       r="3.4969013"
       gradientTransform="matrix(1,0,0,1.0498554,0,-48.74622)"
       gradientUnits="userSpaceOnUse" />
    <radialGradient
       inkscape:collect="always"
       xlink:href="#linearGradient6848"
       id="radialGradient6892"
       cx="320.76276"
       cy="972.0567"
       fx="320.76276"
       fy="972.0567"
       r="2.1037524"
       gradientTransform="matrix(1,0,0,1.6571828,0,-638.81898)"
       gradientUnits="userSpaceOnUse" />
    <radialGradient
       inkscape:collect="always"
       xlink:href="#linearGradient6848"
       id="radialGradient6894"
       cx="313.93021"
       cy="971.48016"
       fx="313.93021"
       fy="971.48016"
       r="4.1257315"
       gradientTransform="matrix(1,0,0,0.66571437,0,324.75186)"
       gradientUnits="userSpaceOnUse" />
    <radialGradient
       inkscape:collect="always"
       xlink:href="#linearGradient6848"
       id="radialGradient6896"
       cx="306.51172"
       cy="975.16028"
       fx="306.51172"
       fy="975.16028"
       r="3.7067087"
       gradientTransform="matrix(1,0,0,1.2012218,0,-196.22347)"
       gradientUnits="userSpaceOnUse" />
    <filter
       inkscape:collect="always"
       style="color-interpolation-filters:sRGB"
       id="filter4222"
       x="-0.0048013796"
       width="1.0096028"
       y="-0.0047986212"
       height="1.0095972">
      <feGaussianBlur
         inkscape:collect="always"
         stdDeviation="0.50267335"
         id="feGaussianBlur4224" />
    </filter>
  </defs>
  <sodipodi:namedview
     id="base"
     pagecolor="#ffffff"
     bordercolor="#666666"
     borderopacity="1.0"
     inkscape:pageopacity="0.0"
     inkscape:pageshadow="2"
     inkscape:zoom="1.979899"
     inkscape:cx="361.06707"
     inkscape:cy="122.82485"
     inkscape:document-units="px"
     inkscape:current-layer="layer1"
     showgrid="true"
     showguides="true"
     inkscape:window-width="1199"
     inkscape:window-height="942"
     inkscape:window-x="694"
     inkscape:window-y="40"
     inkscape:window-maximized="0"
     inkscape:snap-bbox="true">
    <inkscape:grid
       type="xygrid"
       id="grid4195" />
  </sodipodi:namedview>
  <metadata
     id="metadata4176">
    <rdf:RDF>
      <cc:Work
         rdf:about="">
        <dc:format>image/svg+xml</dc:format>
        <dc:type
           rdf:resource="http://purl.org/dc/dcmitype/StillImage" />
      </cc:Work>
    </rdf:RDF>
  </metadata>
  <g
     inkscape:label="Layer 1"
     inkscape:groupmode="layer"
     id="layer1">
    <g
       id="g4226"
       inkscape:export-xdpi="58.838108"
       inkscape:export-ydpi="58.838108">
      <g
         style="fill:#000000;fill-opacity:1;stroke-width:2;stroke-miterlimit:4;stroke-dasharray:none;stroke:#000000;stroke-opacity:1;stroke-linejoin:round;stroke-linecap:round;filter:url(#filter4222)"
         id="g5987">
        <g
           style="fill:#000000;fill-opacity:1;stroke-width:2;stroke-miterlimit:4;stroke-dasharray:none;stroke:#000000;stroke-opacity:1;stroke-linejoin:round;stroke-linecap:round"
           id="g5962">
          <path
             style="opacity:1;fill:#000000;fill-opacity:1;stroke:#000000;stroke-width:2;stroke-miterlimit:4;stroke-dasharray:none;stroke-opacity:1;stroke-linejoin:round;stroke-linecap:round"
             d="m 290.41112,534.14684 c 119.87554,14.11825 214.27012,108.88163 227.92084,228.81131 L 319.79874,785.55573 C 315,755.04075 293.39286,736.82647 267.0675,732.35331 l 12.35745,-104.92486 z"
             id="path4197"
             inkscape:connector-curvature="0"
             sodipodi:nodetypes="cccccc" />
        </g>
      </g>
      <path
         inkscape:connector-curvature="0"
         id="path5968"
         d="M 260,792.36218 Z"
         style="fill:none;fill-rule:evenodd;stroke:#000000;stroke-width:1px;stroke-linecap:butt;stroke-linejoin:miter;stroke-opacity:1" />
      <path
         inkscape:connector-curvature="0"
         id="path5970"
         d="M 260,792.36218 Z"
         style="fill:none;fill-rule:evenodd;stroke:#000000;stroke-width:1px;stroke-linecap:butt;stroke-linejoin:miter;stroke-opacity:1" />
      <path
         inkscape:connector-curvature="0"
         id="path5972"
         d="M 260,792.36218 Z"
         style="fill:none;fill-rule:evenodd;stroke:#000000;stroke-width:1px;stroke-linecap:butt;stroke-linejoin:miter;stroke-opacity:1" />
      <path
         sodipodi:open="true"
         d="m 260.50283,792.36169 a 0.5,0.5 0 0 1 -0.49684,0.49768 0.5,0.5 0 0 1 -0.50308,-0.49138 0.5,0.5 0 0 1 0.48584,-0.50842 0.5,0.5 0 0 1 0.51371,0.48025"
         sodipodi:end="6.2440729"
         sodipodi:start="0.0046362752"
         sodipodi:ry="0.5"
         sodipodi:rx="0.5"
         sodipodi:cy="792.35938"
         sodipodi:cx="260.00284"
         sodipodi:type="arc"
         id="path5983"
         style="opacity:1;fill:#000000;fill-opacity:1;stroke:none;stroke-width:0.1;stroke-linecap:butt;stroke-linejoin:miter;stroke-miterlimit:4;stroke-dasharray:none;stroke-dashoffset:0;stroke-opacity:1" />
    </g>
    <path
       style="opacity:1;fill:#000000;fill-opacity:1;fill-rule:nonzero;stroke:none;stroke-width:2.4000001;stroke-linecap:round;stroke-linejoin:round;stroke-miterlimit:4;stroke-dasharray:none;stroke-dashoffset:0;stroke-opacity:1;filter:url(#filter4239)"
       id="path4155"
       sodipodi:type="arc"
       sodipodi:cx="145"
       sodipodi:cy="937.36218"
       sodipodi:rx="85"
       sodipodi:ry="84.999977"
       sodipodi:start="0.0046362752"
       sodipodi:end="6.2440725"
       d="m 229.99909,937.75626 a 85,84.999977 0 0 1 -84.46351,84.60424 85,84.999977 0 0 1 -85.522951,-83.53314 85,84.999977 0 0 1 82.592771,-86.43142 85,84.999977 0 0 1 87.32959,81.6425"
       sodipodi:open="true"
       inkscape:export-xdpi="62.627907"
       inkscape:export-ydpi="62.627907" />
    <path
       style="opacity:1;fill:#000000;fill-opacity:1;fill-rule:nonzero;stroke:none;stroke-width:2.4000001;stroke-linecap:round;stroke-linejoin:round;stroke-miterlimit:4;stroke-dasharray:none;stroke-dashoffset:0;stroke-opacity:1;filter:url(#filter4426)"
       d="m 370.25334,962.36133 0,6.74658 7.23404,0 0.2071,0 3.32018,0 c 2.06119,0 9.02969,-1.58949 9.02969,-3.45828 0,-1.8688 -6.9685,-3.2883 -9.02969,-3.2883 l -3.32018,0 -0.2071,0 z"
       id="rect4243"
       inkscape:connector-curvature="0"
       inkscape:export-xdpi="56.395412"
       inkscape:export-ydpi="56.395412"
       sodipodi:nodetypes="ccccsssccc" />
    <rect
       style="opacity:1;fill:#008e00;fill-opacity:1;fill-rule:nonzero;stroke:none;stroke-width:2.4000001;stroke-linecap:round;stroke-linejoin:round;stroke-miterlimit:4;stroke-dasharray:none;stroke-dashoffset:0;stroke-opacity:1;filter:url(#filter4446)"
       id="rect4252"
       width="14"
       height="5.0000219"
       x="370"
       y="972.36218"
       ry="2.21072e-005"
       transform="matrix(1.1609187,0,0,0.98444398,-59.505609,15.164911)"
       inkscape:export-xdpi="48.389153"
       inkscape:export-ydpi="48.389153" />
    <rect
       style="opacity:1;fill:#a05a2c;fill-opacity:1;fill-rule:nonzero;stroke:none;stroke-width:2.4000001;stroke-linecap:round;stroke-linejoin:round;stroke-miterlimit:4;stroke-dasharray:none;stroke-dashoffset:0;stroke-opacity:1"
       id="rect5083"
       width="31.464285"
       height="26.874998"
       x="292.37503"
       y="967.32642"
       ry="1.9686922e-005" />
    <path
       sodipodi:nodetypes="sssssssss"
       id="path5145"
       d="m 314.91075,975.11221 1.99996,-0.44643 c 1.62209,-0.36208 3.00002,1.33801 3.00002,3.00002 l 0,0.99996 c 0,1.66201 -1.79956,4.14945 -3.00002,3.00002 l -0.83925,-0.80357 c -1.20045,-1.14943 -1.22273,-0.55862 -2.10716,-2.01788 l -0.71428,-1.17853 c -0.86145,-1.42133 0.0386,-2.19151 1.66073,-2.55359 z"
       style="opacity:1;fill:#7b421d;fill-opacity:1;fill-rule:nonzero;stroke:none;stroke-width:2.4000001;stroke-linecap:round;stroke-linejoin:round;stroke-miterlimit:4;stroke-dasharray:none;stroke-dashoffset:0;stroke-opacity:1"
       inkscape:connector-curvature="0" />
    <g
       id="g5189">
      <path
         style="opacity:1;fill:#7b4421;fill-opacity:0.92307693;fill-rule:nonzero;stroke:none;stroke-width:2.4000001;stroke-linecap:round;stroke-linejoin:round;stroke-miterlimit:4;stroke-dasharray:none;stroke-dashoffset:0;stroke-opacity:1"
         d="m 297.2679,970.16578 1.99996,0 c 1.66201,0 3.00002,1.33801 3.00002,3.00002 l 0,0.99996 c 0,1.66201 -1.33801,3.00002 -3.00002,3.00002 l -1.99996,0 c -1.66201,0 -3.00002,-1.33801 -3.00002,-3.00002 l 0,-0.99996 c 0,-1.66201 1.33801,-3.00002 3.00002,-3.00002 z"
         id="path5165"
         inkscape:connector-curvature="0" />
      <path
         inkscape:connector-curvature="0"
         style="opacity:1;fill:#7b4421;fill-opacity:0.92307693;fill-rule:nonzero;stroke:none;stroke-width:2.4000001;stroke-linecap:round;stroke-linejoin:round;stroke-miterlimit:4;stroke-dasharray:none;stroke-dashoffset:0;stroke-opacity:1"
         d="M 315.00004,975.2015 317,974.75507 c 1.62209,-0.36208 3.00002,1.33801 3.00002,3.00002 l 0,0.99996 c 0,1.66201 -1.79956,4.14945 -3.00002,3.00002 l -0.83925,-0.80357 c -1.20045,-1.14943 -1.22273,-0.55862 -2.10716,-2.01788 l -0.71428,-1.17853 c -0.86145,-1.42133 0.0386,-2.19151 1.66073,-2.55359 z"
         id="path5169"
         sodipodi:nodetypes="sssssssss" />
      <path
         inkscape:connector-curvature="0"
         style="opacity:1;fill:#7b4421;fill-opacity:0.92307693;fill-rule:nonzero;stroke:none;stroke-width:2.4000001;stroke-linecap:round;stroke-linejoin:round;stroke-miterlimit:4;stroke-dasharray:none;stroke-dashoffset:0;stroke-opacity:1"
         d="m 296.66075,978.80864 2.62496,-0.89286 c 1.57348,-0.5352 4.28942,1.95134 3.00002,3.00002 l -1.33929,1.08925 c -1.2894,1.04867 10e-4,2.91073 -1.66073,2.91073 l -1.99996,0 c -1.66201,0 -3.00002,-1.33801 -3.00002,-3.00002 l 0,-0.99996 c 0,-1.66201 0.80154,-1.57196 2.37502,-2.10716 z"
         id="path5171"
         sodipodi:nodetypes="sssssssss" />
      <path
         inkscape:connector-curvature="0"
         style="opacity:1;fill:#7b4421;fill-opacity:0.92307693;fill-rule:nonzero;stroke:none;stroke-width:2.4000001;stroke-linecap:round;stroke-linejoin:round;stroke-miterlimit:4;stroke-dasharray:none;stroke-dashoffset:0;stroke-opacity:1"
         d="m 313.58932,969.83789 1.82139,-0.23041 c 1.64432,-0.208 3.06864,-0.6911 3.00002,0.73733 l -0.0893,1.85857 c -0.0686,1.42841 -1.48901,1.7338 -3.08931,2.11976 l -1.91067,0.46081 c -1.6003,0.38596 -1.38929,-0.94684 -2.19645,-2.19656 l -0.80357,-1.24416 c -0.80716,-1.24972 1.62355,-1.29733 3.26788,-1.50534 z"
         id="path5173"
         sodipodi:nodetypes="sssssssss" />
      <path
         inkscape:connector-curvature="0"
         style="opacity:1;fill:#7b4421;fill-opacity:0.92307693;fill-rule:nonzero;stroke:none;stroke-width:2.4000001;stroke-linecap:round;stroke-linejoin:round;stroke-miterlimit:4;stroke-dasharray:none;stroke-dashoffset:0;stroke-opacity:1"
         d="m 306.41075,980.16578 1.01782,-1.875 c 0.79291,-1.46068 3.00002,1.33801 3.00002,3.00002 l 0,0.99996 c 0,1.66201 -1.07516,2.51393 -2.73216,2.64288 l -4.58925,0.35714 c -1.657,0.12895 -2.22174,-2.38279 -0.67859,-3.00002 l 2.05357,-0.82139 c 1.54315,-0.61723 1.13569,0.15709 1.92859,-1.30359 z"
         id="path5175"
         sodipodi:nodetypes="sssssssss" />
      <path
         sodipodi:nodetypes="sssssssss"
         id="path5177"
         d="m 307.19646,991.98409 2.62496,0.89286 c 1.57348,0.5352 4.28942,-1.95134 3.00002,-3.00002 l -1.33929,-1.08925 c -1.2894,-1.04867 0.001,-2.91073 -1.66073,-2.91073 l -1.99996,0 c -1.66201,0 -3.00002,1.33801 -3.00002,3.00002 l 0,0.99996 c 0,1.66201 0.80154,1.57196 2.37502,2.10716 z"
         style="opacity:1;fill:#7b4421;fill-opacity:0.92307693;fill-rule:nonzero;stroke:none;stroke-width:2.4000001;stroke-linecap:round;stroke-linejoin:round;stroke-miterlimit:4;stroke-dasharray:none;stroke-dashoffset:0;stroke-opacity:1"
         inkscape:connector-curvature="0" />
      <path
         sodipodi:nodetypes="sssssssss"
         id="path5179"
         d="m 312.04509,986.20771 -0.89286,-2.62496 c -0.5352,-1.57348 1.95134,-4.28942 3.00002,-3.00002 l 1.08925,1.33929 c 1.04867,1.2894 3.33664,0.61656 2.82144,2.19644 l -0.53571,1.64282 c -0.51527,1.58012 -0.50741,2.01366 -2.10716,2.46431 l -1.26782,0.35714 c -1.59975,0.45065 -1.57196,-0.80154 -2.10716,-2.37502 z"
         style="opacity:1;fill:#7b4421;fill-opacity:0.92307693;fill-rule:nonzero;stroke:none;stroke-width:2.4000001;stroke-linecap:round;stroke-linejoin:round;stroke-miterlimit:4;stroke-dasharray:none;stroke-dashoffset:0;stroke-opacity:1"
         inkscape:connector-curvature="0" />
      <path
         sodipodi:nodetypes="sssssssss"
         id="path5181"
         d="m 298.57147,985.64793 1.99996,0 c 1.66201,0 1.85406,1.09696 2.46431,2.64288 l 0.53571,1.3571 c 0.61025,1.54592 -1.11148,1.20311 -2.73216,1.57145 l -2.35711,0.53571 c -1.62067,0.36835 -3.43008,-0.52838 -2.91073,-2.10716 l 0.44643,-1.3571 c 0.51935,-1.57878 0.89158,-2.64288 2.55359,-2.64288 z"
         style="opacity:1;fill:#7b4421;fill-opacity:0.92307693;fill-rule:nonzero;stroke:none;stroke-width:2.4000001;stroke-linecap:round;stroke-linejoin:round;stroke-miterlimit:4;stroke-dasharray:none;stroke-dashoffset:0;stroke-opacity:1"
         inkscape:connector-curvature="0" />
      <path
         sodipodi:nodetypes="sssssssss"
         id="path5183"
         d="m 317.07326,988.78316 -1.67176,0.95659 c -1.30235,0.74521 1.10368,2.01598 2.58554,2.01598 l 0.89157,0 c 1.48186,0 2.33073,-0.20692 2.4457,-1.76423 l 0.31843,-4.31317 c 0.11497,-1.55732 -2.12451,-2.08809 -2.67484,-0.63777 l -0.73235,1.93003 c -0.55033,1.45032 0.14006,1.06737 -1.16229,1.81257 z"
         style="opacity:1;fill:#7b4421;fill-opacity:0.92307693;fill-rule:nonzero;stroke:none;stroke-width:2.4000001;stroke-linecap:round;stroke-linejoin:round;stroke-miterlimit:4;stroke-dasharray:none;stroke-dashoffset:0;stroke-opacity:1"
         inkscape:connector-curvature="0" />
      <path
         inkscape:connector-curvature="0"
         style="opacity:1;fill:#7b4421;fill-opacity:0.92307693;fill-rule:nonzero;stroke:none;stroke-width:2.4000001;stroke-linecap:round;stroke-linejoin:round;stroke-miterlimit:4;stroke-dasharray:none;stroke-dashoffset:0;stroke-opacity:1"
         d="m 308.29195,975.35054 1.875,-1.01782 c 1.46068,-0.79291 -1.33801,-3.00002 -3.00002,-3.00002 l -0.99996,0 c -1.66201,0 -2.51393,1.07516 -2.64288,2.73216 l -0.35714,4.58925 c -0.12895,1.657 2.38279,2.22174 3.00002,0.67859 l 0.82139,-2.05357 c 0.61723,-1.54315 -0.15709,-1.13569 1.30359,-1.92859 z"
         id="path5185"
         sodipodi:nodetypes="sssssssss" />
      <path
         inkscape:connector-curvature="0"
         style="opacity:1;fill:#7b4421;fill-opacity:0.92307693;fill-rule:nonzero;stroke:none;stroke-width:2.4000001;stroke-linecap:round;stroke-linejoin:round;stroke-miterlimit:4;stroke-dasharray:none;stroke-dashoffset:0;stroke-opacity:1"
         d="m 319.21612,973.78316 0.56038,0.8673 c 0.58066,0.33677 0.58066,1.22959 1.15697,1.30169 l 1.42728,0.17858 c 1.4704,0.18396 0.60355,-0.29299 0.65999,-1.85352 l 0.13986,-3.86674 c 0.0564,-1.56054 -4.3719,-1.61081 -3.74627,-0.19134 l 0.33908,0.76931 c 0.62563,1.41947 -1.35159,1.53442 -0.53729,2.79472 z"
         id="path5187"
         sodipodi:nodetypes="scsssssss" />
    </g>
    <path
       style="opacity:1;fill:url(#radialGradient6876);fill-opacity:1;fill-rule:nonzero;stroke:none;stroke-width:2.4000001;stroke-linecap:round;stroke-linejoin:round;stroke-miterlimit:4;stroke-dasharray:none;stroke-dashoffset:0;stroke-opacity:1"
       d="m 296.91074,969.54075 1.99996,0 c 1.66201,0 3.00002,1.33801 3.00002,3.00002 l 0,0.99996 c 0,1.66201 -1.33801,3.00002 -3.00002,3.00002 l -1.99996,0 c -1.66201,0 -3.00002,-1.33801 -3.00002,-3.00002 l 0,-0.99996 c 0,-1.66201 1.33801,-3.00002 3.00002,-3.00002 z"
       id="rect5085"
       inkscape:connector-curvature="0" />
    <path
       inkscape:connector-curvature="0"
       style="opacity:1;fill:#000000;fill-opacity:0;fill-rule:nonzero;stroke:none;stroke-width:2.4000001;stroke-linecap:round;stroke-linejoin:round;stroke-miterlimit:4;stroke-dasharray:none;stroke-dashoffset:0;stroke-opacity:1"
       d="m 305.71431,970.29076 1.99996,0 c 1.66201,0 1.66565,1.18534 2.46431,2.64288 l 1.42857,2.6071 c 0.79866,1.45754 -0.25819,2.0362 -1.75002,1.30359 l -1.99997,-0.98214 c -1.49182,-0.73261 -1.94623,-0.83158 -3.26787,-1.83931 l -1.42856,-1.08924 c -1.32165,-1.00773 0.89158,-2.64288 2.55358,-2.64288 z"
       id="rect5085-3"
       sodipodi:nodetypes="sssssssss" />
    <path
       inkscape:connector-curvature="0"
       style="opacity:1;fill:url(#radialGradient6890);fill-opacity:1;fill-rule:nonzero;stroke:none;stroke-width:2.4000001;stroke-linecap:round;stroke-linejoin:round;stroke-miterlimit:4;stroke-dasharray:none;stroke-dashoffset:0;stroke-opacity:1"
       d="m 314.64288,974.57647 1.99996,-0.44643 c 1.62209,-0.36208 3.00002,1.33801 3.00002,3.00002 l 0,0.99996 c 0,1.66201 -1.79956,4.14945 -3.00002,3.00002 l -0.83925,-0.80357 c -1.20045,-1.14943 -1.22273,-0.55862 -2.10716,-2.01788 l -0.71428,-1.17853 c -0.86145,-1.42133 0.0386,-2.19151 1.66073,-2.55359 z"
       id="rect5085-0"
       sodipodi:nodetypes="sssssssss" />
    <path
       inkscape:connector-curvature="0"
       style="opacity:1;fill:url(#radialGradient6880);fill-opacity:1;fill-rule:nonzero;stroke:none;stroke-width:2.4000001;stroke-linecap:round;stroke-linejoin:round;stroke-miterlimit:4;stroke-dasharray:none;stroke-dashoffset:0;stroke-opacity:1"
       d="m 296.30359,978.18361 2.62496,-0.89286 c 1.57348,-0.5352 4.28942,1.95134 3.00002,3.00002 l -1.33929,1.08925 c -1.2894,1.04867 0.001,2.91073 -1.66073,2.91073 l -1.99996,0 c -1.66201,0 -3.00002,-1.33801 -3.00002,-3.00002 l 0,-0.99996 c 0,-1.66201 0.80154,-1.57196 2.37502,-2.10716 z"
       id="rect5085-06"
       sodipodi:nodetypes="sssssssss" />
    <path
       inkscape:connector-curvature="0"
       style="opacity:1;fill:url(#radialGradient6894);fill-opacity:1;fill-rule:nonzero;stroke:none;stroke-width:2.4000001;stroke-linecap:round;stroke-linejoin:round;stroke-miterlimit:4;stroke-dasharray:none;stroke-dashoffset:0;stroke-opacity:1"
       d="m 313.23216,969.21286 1.82139,-0.23041 c 1.64432,-0.208 3.06864,-0.6911 3.00002,0.73733 l -0.0893,1.85857 c -0.0686,1.42841 -1.48901,1.7338 -3.08931,2.11976 l -1.91067,0.46081 c -1.6003,0.38596 -1.38929,-0.94684 -2.19645,-2.19656 l -0.80357,-1.24416 c -0.80716,-1.24972 1.62355,-1.29733 3.26788,-1.50534 z"
       id="rect5085-7"
       sodipodi:nodetypes="sssssssss" />
    <path
       inkscape:connector-curvature="0"
       style="opacity:1;fill:url(#radialGradient6878);fill-opacity:1;fill-rule:nonzero;stroke:none;stroke-width:2.4000001;stroke-linecap:round;stroke-linejoin:round;stroke-miterlimit:4;stroke-dasharray:none;stroke-dashoffset:0;stroke-opacity:1"
       d="m 306.05359,979.54075 1.01782,-1.875 c 0.79291,-1.46068 3.00002,1.33801 3.00002,3.00002 l 0,0.99996 c 0,1.66201 -1.07516,2.51393 -2.73216,2.64288 l -4.58925,0.35714 c -1.657,0.12895 -2.22174,-2.38279 -0.67859,-3.00002 l 2.05357,-0.82139 c 1.54315,-0.61723 1.13569,0.15709 1.92859,-1.30359 z"
       id="rect5085-5"
       sodipodi:nodetypes="sssssssss" />
    <path
       sodipodi:nodetypes="sssssssss"
       id="path5147"
       d="m 306.8393,991.35906 2.62496,0.89286 c 1.57348,0.5352 4.28942,-1.95134 3.00002,-3.00002 l -1.33929,-1.08925 c -1.2894,-1.04867 10e-4,-2.91073 -1.66073,-2.91073 l -1.99996,0 c -1.66201,0 -3.00002,1.33801 -3.00002,3.00002 l 0,0.99996 c 0,1.66201 0.80154,1.57196 2.37502,2.10716 z"
       style="opacity:1;fill:url(#radialGradient6884);fill-opacity:1;fill-rule:nonzero;stroke:none;stroke-width:2.4000001;stroke-linecap:round;stroke-linejoin:round;stroke-miterlimit:4;stroke-dasharray:none;stroke-dashoffset:0;stroke-opacity:1"
       inkscape:connector-curvature="0" />
    <path
       sodipodi:nodetypes="sssssssss"
       id="path5149"
       d="m 311.68793,985.58268 -0.89286,-2.62496 c -0.5352,-1.57348 1.95134,-4.28942 3.00002,-3.00002 l 1.08925,1.33929 c 1.04867,1.2894 3.33664,0.61656 2.82144,2.19644 l -0.53571,1.64282 c -0.51527,1.58012 -0.50741,2.01366 -2.10716,2.46431 l -1.26782,0.35714 c -1.59975,0.45065 -1.57196,-0.80154 -2.10716,-2.37502 z"
       style="opacity:1;fill:url(#radialGradient6888);fill-opacity:1;fill-rule:nonzero;stroke:none;stroke-width:2.4000001;stroke-linecap:round;stroke-linejoin:round;stroke-miterlimit:4;stroke-dasharray:none;stroke-dashoffset:0;stroke-opacity:1"
       inkscape:connector-curvature="0" />
    <path
       sodipodi:nodetypes="sssssssss"
       id="path5151"
       d="m 298.21431,985.0229 1.99996,0 c 1.66201,0 1.85406,1.09696 2.46431,2.64288 l 0.53571,1.3571 c 0.61025,1.54592 -1.11148,1.20311 -2.73216,1.57145 l -2.35711,0.53571 c -1.62067,0.36835 -3.43008,-0.52838 -2.91073,-2.10716 l 0.44643,-1.3571 c 0.51935,-1.57878 0.89158,-2.64288 2.55359,-2.64288 z"
       style="opacity:1;fill:url(#radialGradient6882);fill-opacity:1;fill-rule:nonzero;stroke:none;stroke-width:2.4000001;stroke-linecap:round;stroke-linejoin:round;stroke-miterlimit:4;stroke-dasharray:none;stroke-dashoffset:0;stroke-opacity:1"
       inkscape:connector-curvature="0" />
    <path
       sodipodi:nodetypes="sssssssss"
       id="path5153"
       d="m 316.7161,988.15813 -1.67176,0.95659 c -1.30235,0.74521 1.10368,2.01598 2.58554,2.01598 l 0.89157,0 c 1.48186,0 2.33073,-0.20692 2.4457,-1.76423 l 0.31843,-4.31317 c 0.11497,-1.55732 -2.12451,-2.08809 -2.67484,-0.63777 l -0.73235,1.93003 c -0.55033,1.45032 0.14006,1.06737 -1.16229,1.81257 z"
       style="opacity:1;fill:url(#radialGradient6886);fill-opacity:1;fill-rule:nonzero;stroke:none;stroke-width:2.4000001;stroke-linecap:round;stroke-linejoin:round;stroke-miterlimit:4;stroke-dasharray:none;stroke-dashoffset:0;stroke-opacity:1"
       inkscape:connector-curvature="0" />
    <path
       inkscape:connector-curvature="0"
       style="opacity:1;fill:url(#radialGradient6896);fill-opacity:1;fill-rule:nonzero;stroke:none;stroke-width:2.4000001;stroke-linecap:round;stroke-linejoin:round;stroke-miterlimit:4;stroke-dasharray:none;stroke-dashoffset:0;stroke-opacity:1"
       d="m 307.93479,974.72551 1.875,-1.01782 c 1.46068,-0.79291 -1.33801,-3.00002 -3.00002,-3.00002 l -0.99996,0 c -1.66201,0 -2.51393,1.07516 -2.64288,2.73216 l -0.35714,4.58925 c -0.12895,1.657 2.38279,2.22174 3.00002,0.67859 l 0.82139,-2.05357 c 0.61723,-1.54315 -0.15709,-1.13569 1.30359,-1.92859 z"
       id="path5155"
       sodipodi:nodetypes="sssssssss" />
    <path
       inkscape:connector-curvature="0"
       style="opacity:1;fill:url(#radialGradient6892);fill-opacity:1;fill-rule:nonzero;stroke:none;stroke-width:2.4000001;stroke-linecap:round;stroke-linejoin:round;stroke-miterlimit:4;stroke-dasharray:none;stroke-dashoffset:0;stroke-opacity:1"
       d="m 318.85896,973.15813 0.56038,0.8673 C 320,974.3622 320,975.25502 320.57631,975.32712 l 1.42728,0.17858 c 1.4704,0.18396 0.60355,-0.29299 0.65999,-1.85352 l 0.13986,-3.86674 c 0.0564,-1.56054 -4.3719,-1.61081 -3.74627,-0.19134 l 0.33908,0.76931 c 0.62563,1.41947 -1.35159,1.53442 -0.53729,2.79472 z"
       id="path5159"
       sodipodi:nodetypes="scsssssss" />
  </g>
</svg>
