<?xml version="1.0" encoding="UTF-8" standalone="no"?>
<!-- Created with Inkscape (http://www.inkscape.org/) -->

<svg
   xmlns:dc="http://purl.org/dc/elements/1.1/"
   xmlns:cc="http://creativecommons.org/ns#"
   xmlns:rdf="http://www.w3.org/1999/02/22-rdf-syntax-ns#"
   xmlns:svg="http://www.w3.org/2000/svg"
   xmlns="http://www.w3.org/2000/svg"
   xmlns:xlink="http://www.w3.org/1999/xlink"
   xmlns:sodipodi="http://sodipodi.sourceforge.net/DTD/sodipodi-0.dtd"
   xmlns:inkscape="http://www.inkscape.org/namespaces/inkscape"
   width="210mm"
   height="297mm"
   viewBox="0 0 744.09448819 1052.3622047"
   id="svg4450"
   version="1.1"
   inkscape:version="0.91 r13725"
   sodipodi:docname="Title Page.svg"
   inkscape:export-filename="C:\wamp\www\tanks\ideas\Title Page.png"
   inkscape:export-xdpi="3402.9421"
   inkscape:export-ydpi="3402.9421">
  <defs
     id="defs4452">
    <linearGradient
       inkscape:collect="always"
       id="linearGradient4276">
      <stop
         style="stop-color:#ffffff;stop-opacity:1;"
         offset="0"
         id="stop4278" />
      <stop
         style="stop-color:#f0f0f0;stop-opacity:1"
         offset="1"
         id="stop4280" />
    </linearGradient>
    <linearGradient
       inkscape:collect="always"
       id="linearGradient4265">
      <stop
         style="stop-color:#d92626;stop-opacity:0"
         offset="0"
         id="stop4267" />
      <stop
         style="stop-color:#000000;stop-opacity:0.31818181"
         offset="1"
         id="stop4269" />
    </linearGradient>
    <linearGradient
       inkscape:collect="always"
       id="linearGradient4243">
      <stop
         style="stop-color:#fffcfc;stop-opacity:0.61038959"
         offset="0"
         id="stop4245" />
      <stop
         style="stop-color:#ffffff;stop-opacity:0"
         offset="1"
         id="stop4247" />
    </linearGradient>
    <linearGradient
       inkscape:collect="always"
       id="linearGradient4190">
      <stop
         style="stop-color:#ababab;stop-opacity:1"
         offset="0"
         id="stop4192" />
      <stop
         style="stop-color:#ffffff;stop-opacity:0;"
         offset="1"
         id="stop4194" />
    </linearGradient>
    <linearGradient
       id="linearGradient5071"
       inkscape:collect="always">
      <stop
         id="stop5075"
         offset="0"
         style="stop-color:#666666;stop-opacity:1" />
      <stop
         id="stop5077"
         offset="1"
         style="stop-color:#dcdcdc;stop-opacity:1" />
    </linearGradient>
    <linearGradient
       inkscape:collect="always"
       id="linearGradient5002">
      <stop
         style="stop-color:#808080;stop-opacity:1;"
         offset="0"
         id="stop5004" />
      <stop
         style="stop-color:#b7b7b7;stop-opacity:1"
         offset="1"
         id="stop5006" />
    </linearGradient>
    <linearGradient
       inkscape:collect="always"
       xlink:href="#linearGradient5002"
       id="linearGradient5008"
       x1="680"
       y1="532.36218"
       x2="43.173992"
       y2="135.09851"
       gradientUnits="userSpaceOnUse"
       gradientTransform="matrix(0.89350866,0,0,0.92892085,37.381492,10.697755)" />
    <linearGradient
       inkscape:collect="always"
       xlink:href="#linearGradient5071"
       id="linearGradient5055"
       x1="380"
       y1="382.36221"
       x2="340"
       y2="312.36221"
       gradientUnits="userSpaceOnUse"
       gradientTransform="matrix(0.89350866,0,0,0.92892085,37.381492,10.697755)" />
    <linearGradient
       inkscape:collect="always"
       xlink:href="#linearGradient4190"
       id="linearGradient4196"
       x1="385"
       y1="382.36221"
       x2="385.00327"
       y2="421.74408"
       gradientUnits="userSpaceOnUse" />
    <filter
       inkscape:collect="always"
       style="color-interpolation-filters:sRGB"
       id="filter4234"
       x="-0.0048788818"
       width="1.0097578"
       y="-0.013733853"
       height="1.0274677">
      <feGaussianBlur
         inkscape:collect="always"
         stdDeviation="0.31529298"
         id="feGaussianBlur4236" />
    </filter>
    <linearGradient
       inkscape:collect="always"
       xlink:href="#linearGradient4243"
       id="linearGradient4249"
       x1="370.18832"
       y1="377.41721"
       x2="370.34738"
       y2="411.34576"
       gradientUnits="userSpaceOnUse" />
    <filter
       inkscape:collect="always"
       style="color-interpolation-filters:sRGB"
       id="filter4259"
       x="-0.00069481402"
       width="1.0013896"
       y="-0.0043969067"
       height="1.0087938">
      <feGaussianBlur
         inkscape:collect="always"
         stdDeviation="0.042696455"
         id="feGaussianBlur4261" />
    </filter>
    <linearGradient
       inkscape:collect="always"
       xlink:href="#linearGradient4265"
       id="linearGradient4271"
       x1="385"
       y1="412.36221"
       x2="385"
       y2="432.36221"
       gradientUnits="userSpaceOnUse" />
    <linearGradient
       inkscape:collect="always"
       xlink:href="#linearGradient4276"
       id="linearGradient4282"
       x1="372.26071"
       y1="412.00815"
       x2="362.73981"
       y2="402.42657"
       gradientUnits="userSpaceOnUse" />
    <filter
       inkscape:collect="always"
       style="color-interpolation-filters:sRGB"
       id="filter4374"
       x="-0.079366997"
       width="1.158734"
       y="-0.089207433"
       height="1.1784149">
      <feGaussianBlur
         inkscape:collect="always"
         stdDeviation="1.3011696"
         id="feGaussianBlur4376" />
    </filter>
    <linearGradient
       gradientTransform="matrix(1.0185657,0,0,1.0185657,-8.3923527,-9.1310121)"
       inkscape:collect="always"
       xlink:href="#linearGradient4276"
       id="linearGradient4863-2"
       x1="350.57056"
       y1="409.646"
       x2="391.82584"
       y2="409.646"
       gradientUnits="userSpaceOnUse" />
    <filter
       inkscape:collect="always"
       style="color-interpolation-filters:sRGB"
       id="filter4913"
       x="-0.082856502"
       width="1.165713"
       y="-0.085175503"
       height="1.170351">
      <feGaussianBlur
         inkscape:collect="always"
         stdDeviation="1.4242783"
         id="feGaussianBlur4915" />
    </filter>
    <linearGradient
       inkscape:collect="always"
       xlink:href="#linearGradient4276"
       id="linearGradient5490"
       x1="333.61826"
       y1="408.96933"
       x2="407.56857"
       y2="408.96933"
       gradientUnits="userSpaceOnUse" />
    <filter
       inkscape:collect="always"
       style="color-interpolation-filters:sRGB"
       id="filter5598"
       x="-0.060627818"
       width="1.1212556"
       y="-0.13669708"
       height="1.2733942">
      <feGaussianBlur
         inkscape:collect="always"
         stdDeviation="1.8681027"
         id="feGaussianBlur5600" />
    </filter>
    <linearGradient
       inkscape:collect="always"
       xlink:href="#linearGradient4276"
       id="linearGradient6192"
       x1="345.04385"
       y1="408.38998"
       x2="390.34708"
       y2="408.38998"
       gradientUnits="userSpaceOnUse" />
    <filter
       inkscape:collect="always"
       style="color-interpolation-filters:sRGB"
       id="filter6298"
       x="-0.079247872"
       width="1.1584957"
       y="-0.089358411"
       height="1.1787168">
      <feGaussianBlur
         inkscape:collect="always"
         stdDeviation="1.4959101"
         id="feGaussianBlur6300" />
    </filter>
  </defs>
  <sodipodi:namedview
     id="base"
     pagecolor="#ffffff"
     bordercolor="#666666"
     borderopacity="1.0"
     inkscape:pageopacity="0.0"
     inkscape:pageshadow="2"
     inkscape:zoom="1.979899"
     inkscape:cx="383.56634"
     inkscape:cy="705.55062"
     inkscape:document-units="px"
     inkscape:current-layer="layer5"
     showgrid="true"
     inkscape:window-width="1468"
     inkscape:window-height="882"
     inkscape:window-x="371"
     inkscape:window-y="31"
     inkscape:window-maximized="0"
     inkscape:snap-global="false"
     showguides="true">
    <inkscape:grid
       type="xygrid"
       id="grid4998" />
  </sodipodi:namedview>
  <metadata
     id="metadata4455">
    <rdf:RDF>
      <cc:Work
         rdf:about="">
        <dc:format>image/svg+xml</dc:format>
        <dc:type
           rdf:resource="http://purl.org/dc/dcmitype/StillImage" />
        <dc:title />
      </cc:Work>
    </rdf:RDF>
  </metadata>
  <g
     inkscape:label="Background"
     inkscape:groupmode="layer"
     id="layer1"
     style="display:inline">
    <rect
       style="opacity:1;fill:#008080;fill-opacity:1;fill-rule:nonzero;stroke:none;stroke-width:2.4000001;stroke-linecap:round;stroke-linejoin:round;stroke-miterlimit:4;stroke-dasharray:none;stroke-dashoffset:0;stroke-opacity:1"
       id="rect5081"
       width="740"
       height="500"
       x="0"
       y="89.505066"
       ry="2.19761e-005" />
    <rect
       ry="2.0414012e-005"
       y="150.50482"
       x="88.284271"
       height="356.44064"
       width="559.39081"
       id="rect5045"
       style="opacity:1;fill:url(#linearGradient5055);fill-opacity:1;fill-rule:nonzero;stroke:none;stroke-width:2.4000001;stroke-linecap:round;stroke-linejoin:round;stroke-miterlimit:4;stroke-dasharray:none;stroke-dashoffset:0;stroke-opacity:1"
       inkscape:export-xdpi="72.4002"
       inkscape:export-ydpi="72.4002" />
    <rect
       style="opacity:1;fill:url(#linearGradient5008);fill-opacity:1;fill-rule:nonzero;stroke:none;stroke-width:2.4000001;stroke-linecap:round;stroke-linejoin:round;stroke-miterlimit:4;stroke-dasharray:none;stroke-dashoffset:0;stroke-opacity:1"
       id="rect5000"
       width="553.97534"
       height="352.98993"
       x="90.992012"
       y="152.23018"
       ry="2.0216385e-005"
       inkscape:export-xdpi="72.4002"
       inkscape:export-ydpi="72.4002" />
    <text
       inkscape:transform-center-y="19.192898"
       inkscape:transform-center-x="28.284271"
       sodipodi:linespacing="125%"
       id="text4395"
       y="231.85458"
       x="377.85031"
       style="font-style:normal;font-weight:normal;font-size:40px;line-height:125%;font-family:sans-serif;letter-spacing:0px;word-spacing:0px;fill:#000000;fill-opacity:1;stroke:none;stroke-width:1px;stroke-linecap:butt;stroke-linejoin:miter;stroke-opacity:1"
       xml:space="preserve"
       inkscape:export-xdpi="72.4002"
       inkscape:export-ydpi="72.4002"><tspan
         style="font-style:normal;font-variant:normal;font-weight:bold;font-stretch:normal;font-size:40px;line-height:125%;font-family:Aharoni;-inkscape-font-specification:'Aharoni, Bold';text-align:center;writing-mode:lr-tb;text-anchor:middle;fill:#000000;fill-opacity:1"
         y="231.85458"
         x="377.85031"
         id="tspan4397"
         sodipodi:role="line">Draw a House</tspan><tspan
         style="font-style:normal;font-variant:normal;font-weight:bold;font-stretch:normal;font-size:40px;line-height:125%;font-family:Aharoni;-inkscape-font-specification:'Aharoni, Bold';text-align:center;writing-mode:lr-tb;text-anchor:middle;fill:#000000;fill-opacity:1"
         id="tspan4399"
         y="281.85458"
         x="377.85031"
         sodipodi:role="line">on a Tank</tspan><tspan
         id="tspan4401"
         y="331.85458"
         x="377.85031"
         sodipodi:role="line" /><tspan
         id="tspan4403"
         y="381.85458"
         x="377.85031"
         sodipodi:role="line" /></text>
    <text
       xml:space="preserve"
       style="font-style:normal;font-weight:normal;font-size:40px;line-height:125%;font-family:sans-serif;letter-spacing:0px;word-spacing:0px;fill:#f9f9f9;fill-opacity:1;stroke:none;stroke-width:1px;stroke-linecap:butt;stroke-linejoin:miter;stroke-opacity:1"
       x="376.84018"
       y="230.84442"
       id="text5010-6"
       sodipodi:linespacing="125%"
       inkscape:transform-center-x="28.284271"
       inkscape:transform-center-y="19.192898"
       inkscape:export-xdpi="72.4002"
       inkscape:export-ydpi="72.4002"><tspan
         sodipodi:role="line"
         id="tspan5012-9"
         x="376.84018"
         y="230.84442"
         style="font-style:normal;font-variant:normal;font-weight:bold;font-stretch:normal;font-size:40px;line-height:125%;font-family:Aharoni;-inkscape-font-specification:'Aharoni, Bold';text-align:center;writing-mode:lr-tb;text-anchor:middle">Draw a House</tspan><tspan
         sodipodi:role="line"
         x="376.84018"
         y="280.84442"
         id="tspan4153"
         style="font-style:normal;font-variant:normal;font-weight:bold;font-stretch:normal;font-size:40px;line-height:125%;font-family:Aharoni;-inkscape-font-specification:'Aharoni, Bold';text-align:center;writing-mode:lr-tb;text-anchor:middle">on a Tank</tspan><tspan
         sodipodi:role="line"
         x="376.84018"
         y="330.84442"
         id="tspan4151" /><tspan
         sodipodi:role="line"
         x="376.84018"
         y="380.84442"
         id="tspan4149" /></text>
    <text
       xml:space="preserve"
       style="font-style:normal;font-weight:normal;font-size:40px;line-height:125%;font-family:sans-serif;letter-spacing:0px;word-spacing:0px;fill:#000000;fill-opacity:1;stroke:none;stroke-width:1px;stroke-linecap:butt;stroke-linejoin:miter;stroke-opacity:1"
       x="334.3605"
       y="330.10312"
       id="text4380"
       sodipodi:linespacing="125%"><tspan
         sodipodi:role="line"
         id="tspan4382"
         x="334.3605"
         y="330.10312" /></text>
    <text
       xml:space="preserve"
       style="font-style:normal;font-weight:normal;font-size:40px;line-height:139.99999762%;font-family:sans-serif;letter-spacing:0px;word-spacing:0px;fill:#000000;fill-opacity:1;stroke:none;stroke-width:1px;stroke-linecap:butt;stroke-linejoin:miter;stroke-opacity:1"
       x="373.75644"
       y="331.11331"
       id="text4405"
       sodipodi:linespacing="140%"
       inkscape:export-xdpi="72.4002"
       inkscape:export-ydpi="72.4002"><tspan
         sodipodi:role="line"
         id="tspan4407"
         x="373.75644"
         y="331.11331"
         style="font-style:normal;font-variant:normal;font-weight:normal;font-stretch:normal;font-size:20px;line-height:139.99999762%;font-family:'MV Boli';-inkscape-font-specification:'MV Boli, Normal';text-align:center;writing-mode:lr-tb;text-anchor:middle">yes it's that simple</tspan></text>
    <path
       style="display:inline;opacity:1;fill:url(#linearGradient4271);fill-opacity:1;fill-rule:nonzero;stroke:none;stroke-width:2.79999995;stroke-linecap:butt;stroke-linejoin:miter;stroke-miterlimit:4;stroke-dasharray:11.2, 22.4;stroke-dashoffset:0;stroke-opacity:1"
       d="m 318.99999,383.07651 102.00002,0 c 5.53999,0 9.99999,4.45999 9.99999,9.99999 l 0,30.00002 c 0,5.53999 -4.46,9.99999 -9.99999,9.99999 l -102.00002,0 c -5.53999,0 -9.99999,-4.46 -9.99999,-9.99999 l 0,-30.00002 c 0,-5.54 4.46,-9.99999 9.99999,-9.99999 z"
       id="rect4263"
       inkscape:connector-curvature="0"
       sodipodi:nodetypes="sssssssss" />
  </g>
  <g
     inkscape:groupmode="layer"
     id="layer2"
     inkscape:label="Button"
     style="display:inline">
    <path
       style="display:inline;opacity:1;fill:#448645;fill-opacity:1;fill-rule:nonzero;stroke:none;stroke-width:2.79999995;stroke-linecap:butt;stroke-linejoin:miter;stroke-miterlimit:4;stroke-dasharray:11.2, 22.4;stroke-dashoffset:0;stroke-opacity:1"
       d="m 319,379.01172 c -7.72118,0 -14.06445,6.34328 -14.06445,14.06445 l 0,30 c 0,7.72118 6.34328,14.06445 14.06445,14.06445 l 102,0 c 7.72117,0 14.06445,-5.80756 14.06445,-13.52874 l 0,-30.53571 c 0,-7.72117 -6.34327,-14.06445 -14.06445,-14.06445 z m 0,4.06445 102,0 c 5.54,0 10,4.46001 10,10 l 0,30 c 0,5.54 -4.46,10 -10,10 l -102,0 c -5.54,0 -10,-4.46 -10,-10 l 0,-30 c 0,-5.53999 4.46,-10 10,-10 z"
       id="path4181"
       inkscape:export-xdpi="71.487473"
       inkscape:export-ydpi="71.487473"
       inkscape:connector-curvature="0"
       sodipodi:nodetypes="ssssssssssssssssss" />
    <path
       transform="matrix(0.99978288,0,0,1.0452235,0.08033338,-18.454617)"
       style="display:inline;opacity:1;fill:url(#linearGradient4196);fill-opacity:1;fill-rule:nonzero;stroke:none;stroke-width:2.79999995;stroke-linecap:butt;stroke-linejoin:miter;stroke-miterlimit:4;stroke-dasharray:11.2, 22.4;stroke-dashoffset:0;stroke-opacity:1;filter:url(#filter4234)"
       d="m 319.00304,380.52734 c -6.8913,0 -12.54883,5.65755 -12.54883,12.54883 l 0,30 c 0,6.8913 5.65755,12.54883 12.54883,12.54883 l 101.99392,0 c 6.89129,0 12.54883,-5.65753 12.54883,-12.54883 l 0,-30 c 0,-6.89128 -5.65753,-12.54883 -12.54883,-12.54883 z m 0,1.03321 101.99392,0 c 6.35323,0 11.51562,5.1624 11.51562,11.51562 l 0,30 c 0,6.35323 -5.16239,11.51563 -11.51562,11.51563 l -101.99392,0 c -6.35323,0 -11.51562,-5.1624 -11.51562,-11.51563 l 0,-30 c 0,-6.35322 5.16239,-11.51562 11.51562,-11.51562 z"
       id="path4188"
       inkscape:connector-curvature="0"
       sodipodi:nodetypes="ssssssssssssssssss"
       inkscape:export-xdpi="71.487473"
       inkscape:export-ydpi="71.487473" />
    <path
       style="display:inline;opacity:1;fill:#5ba956;fill-opacity:1;fill-rule:nonzero;stroke:none;stroke-width:2.79999995;stroke-linecap:butt;stroke-linejoin:miter;stroke-miterlimit:4;stroke-dasharray:11.2, 22.4;stroke-dashoffset:0;stroke-opacity:1"
       d="m 318.99999,383.07651 102.00002,0 c 5.53999,0 9.99999,4.45999 9.99999,9.99999 l 0,30.00002 c 0,5.53999 -4.46,9.99999 -9.99999,9.99999 l -102.00002,0 c -5.53999,0 -9.99999,-4.46 -9.99999,-9.99999 l 0,-30.00002 c 0,-5.54 4.46,-9.99999 9.99999,-9.99999 z"
       id="rect4177"
       inkscape:connector-curvature="0"
       sodipodi:nodetypes="sssssssss"
       inkscape:export-xdpi="71.487473"
       inkscape:export-ydpi="71.487473" />
    <path
       style="display:inline;opacity:1;fill:url(#linearGradient4249);fill-opacity:1;fill-rule:nonzero;stroke:none;stroke-width:2.79999995;stroke-linecap:butt;stroke-linejoin:miter;stroke-miterlimit:4;stroke-dasharray:11.2, 22.4;stroke-dashoffset:0;stroke-opacity:1;filter:url(#filter4259)"
       d="m 319,384.33594 c -4.86376,0 -8.74023,3.87648 -8.74023,8.74023 4.44771,19.23851 115.3184,19.60099 119.48046,0 0,-4.86375 -3.87647,-8.74023 -8.74023,-8.74023 z"
       id="path4240"
       inkscape:connector-curvature="0"
       sodipodi:nodetypes="sccss"
       inkscape:export-xdpi="71.487473"
       inkscape:export-ydpi="71.487473" />
  </g>
  <g
     inkscape:groupmode="layer"
     id="layer6"
     inkscape:label="home icon"
     style="display:none">
    <path
       style="display:inline;fill:#000000;fill-opacity:0.52156863;filter:url(#filter6298)"
       d="m 353.56667,428.34881 c -0.38895,-0.17238 -0.73791,-0.53172 -0.93234,-0.96006 -0.16552,-0.36465 -0.17112,-0.6798 -0.173,-9.74446 l -0.002,-9.36762 -3.36899,0 c -2.72546,0 -3.42706,-0.0243 -3.67303,-0.12703 -0.38662,-0.16155 -0.47718,-0.46594 -0.25214,-0.84752 0.2249,-0.38132 20.83089,-18.50335 21.35346,-18.77939 0.35236,-0.18612 0.53974,-0.22145 1.17456,-0.22145 1.01775,0 1.23666,0.12175 2.96988,1.65181 0.77953,0.68816 5.46334,4.81035 10.40847,9.16043 4.94513,4.35008 9.0646,8.03438 9.15439,8.18732 0.22491,0.38311 0.13457,0.68722 -0.25214,0.8488 -0.24596,0.10277 -0.94757,0.12703 -3.67303,0.12703 l -3.36899,0 0,9.42012 0,9.42013 -0.20611,0.39041 c -0.11336,0.21472 -0.37585,0.50999 -0.58332,0.65615 l -0.37721,0.26575 -4.15301,0.0247 -4.15302,0.0247 -0.025,-6.26974 -0.025,-6.26975 -0.24596,-0.41841 c -0.15949,-0.27133 -0.39304,-0.50488 -0.66437,-0.66437 l -0.41841,-0.24596 -4.38484,0 c -4.81469,0 -4.60097,-0.0225 -5.17418,0.54542 -0.53718,0.53224 -0.53862,0.54356 -0.54769,4.32663 -0.005,1.9001 -0.0145,4.70042 -0.0221,6.22293 l -0.0139,2.76821 -4.05266,-0.004 c -3.17314,-0.003 -4.11033,-0.029 -4.31841,-0.12125 z"
       id="path6161-6"
       inkscape:connector-curvature="0"
       inkscape:export-xdpi="71.487473"
       inkscape:export-ydpi="71.487473" />
    <path
       style="display:inline;fill:url(#linearGradient6192);fill-opacity:1"
       d="m 353.56661,428.34884 c -0.38895,-0.17238 -0.73791,-0.53172 -0.93234,-0.96006 -0.16552,-0.36465 -0.17112,-0.6798 -0.173,-9.74446 l -0.002,-9.36762 -3.36899,0 c -2.72546,0 -3.42706,-0.0243 -3.67303,-0.12703 -0.38662,-0.16155 -0.47718,-0.46594 -0.25214,-0.84752 0.2249,-0.38132 20.83089,-18.50335 21.35346,-18.77939 0.35236,-0.18612 0.53974,-0.22145 1.17456,-0.22145 1.01775,0 1.23666,0.12175 2.96988,1.65181 0.77953,0.68816 5.46334,4.81035 10.40847,9.16043 4.94513,4.35008 9.0646,8.03438 9.15439,8.18732 0.22491,0.38311 0.13457,0.68722 -0.25214,0.8488 -0.24596,0.10277 -0.94757,0.12703 -3.67303,0.12703 l -3.36899,0 0,9.42012 0,9.42013 -0.20611,0.39041 c -0.11336,0.21472 -0.37585,0.50999 -0.58332,0.65615 l -0.37721,0.26575 -4.15301,0.0247 -4.15302,0.0247 -0.025,-6.26974 -0.025,-6.26975 -0.24596,-0.41841 c -0.15949,-0.27133 -0.39304,-0.50488 -0.66437,-0.66437 l -0.41841,-0.24596 -4.38484,0 c -4.81469,0 -4.60097,-0.0225 -5.17418,0.54542 -0.53718,0.53224 -0.53862,0.54356 -0.54769,4.32663 -0.005,1.9001 -0.0145,4.70042 -0.0221,6.22293 l -0.0139,2.76821 -4.05266,-0.004 c -3.17314,-0.003 -4.11033,-0.029 -4.31841,-0.12125 z"
       id="path6161"
       inkscape:connector-curvature="0"
       inkscape:export-xdpi="71.487473"
       inkscape:export-ydpi="71.487473" />
  </g>
  <g
     inkscape:groupmode="layer"
     id="layer5"
     inkscape:label="Long Arrow"
     style="display:none">
    <path
       style="display:inline;fill:#000000;fill-opacity:0.52156863;filter:url(#filter5598)"
       d="m 389.12994,425.20721 c -0.68776,-0.29917 -0.68339,-0.26566 -0.74774,-5.73526 l -0.0591,-5.02138 -26.93821,-0.0591 c -21.58096,-0.0474 -26.99083,-0.0892 -27.20282,-0.21026 -0.60184,-0.34388 -0.62151,-0.50914 -0.62151,-5.22464 0,-4.81024 0.0116,-4.89711 0.70504,-5.25568 0.3068,-0.15866 3.43155,-0.17922 27.23158,-0.17922 l 26.885,0 6.5e-4,-4.99184 c 6.5e-4,-4.73943 0.012,-5.01093 0.23064,-5.36939 0.31267,-0.51277 1.00877,-0.73037 1.58851,-0.49656 0.22531,0.0909 1.48629,1.14881 2.80219,2.35099 1.31588,1.20218 3.67206,3.35088 5.23593,4.77491 1.56388,1.42403 3.16578,2.88613 3.55979,3.24913 0.39401,0.36299 1.18809,1.08533 1.76462,1.60519 3.94861,3.56048 4.05776,3.68558 3.90875,4.47986 -0.071,0.37813 -0.84758,1.18442 -3.13909,3.25896 -0.19685,0.17821 -0.36831,0.33692 -3.07411,2.84543 -0.81191,0.75271 -2.85855,2.63525 -4.5481,4.18341 -1.68954,1.54817 -3.75464,3.45777 -4.58911,4.24357 -1.88133,1.77162 -2.15787,1.91502 -2.99272,1.55186 z"
       id="path5467-7"
       inkscape:connector-curvature="0"
       inkscape:export-xdpi="71.487473"
       inkscape:export-ydpi="71.487473" />
    <path
       style="display:inline;fill:url(#linearGradient5490);fill-opacity:1"
       d="m 389.18763,425.2072 c -0.68776,-0.29917 -0.68339,-0.26566 -0.74774,-5.73526 l -0.0591,-5.02138 -26.93821,-0.0591 c -21.58096,-0.0474 -26.99083,-0.0892 -27.20282,-0.21026 -0.60184,-0.34388 -0.62151,-0.50914 -0.62151,-5.22464 0,-4.81024 0.0116,-4.89711 0.70504,-5.25568 0.3068,-0.15866 3.43155,-0.17922 27.23158,-0.17922 l 26.885,0 6.5e-4,-4.99184 c 6.5e-4,-4.73943 0.012,-5.01093 0.23064,-5.36939 0.31267,-0.51277 1.00877,-0.73037 1.58851,-0.49656 0.22531,0.0909 1.48629,1.14881 2.80219,2.35099 1.31588,1.20218 3.67206,3.35088 5.23593,4.77491 1.56388,1.42403 3.16578,2.88613 3.55979,3.24913 0.39401,0.36299 1.18809,1.08533 1.76462,1.60519 3.94861,3.56048 4.05776,3.68558 3.90875,4.47986 -0.071,0.37813 -0.84758,1.18442 -3.13909,3.25896 -0.19685,0.17821 -0.36831,0.33692 -3.07411,2.84543 -0.81191,0.75271 -2.85855,2.63525 -4.5481,4.18341 -1.68954,1.54817 -3.75464,3.45777 -4.58911,4.24357 -1.88133,1.77162 -2.15787,1.91502 -2.99272,1.55186 z"
       id="path5467"
       inkscape:connector-curvature="0"
       inkscape:export-xdpi="71.487473"
       inkscape:export-ydpi="71.487473" />
  </g>
  <g
     inkscape:groupmode="layer"
     id="layer4"
     inkscape:label="play icon"
     style="display:inline">
    <path
       sodipodi:nodetypes="cccccc"
       inkscape:connector-curvature="0"
       id="path4284"
       d="m 354.28573,391.29078 c 3.80688,1.00949 38.21427,15.53571 38.39284,18.03573 0,1.96426 -36.18713,17.32141 -38.39284,16.96427 l -2e-5,-2e-5 c -1.45687,-2.05209 -1.07143,-32.26188 0,-34.99996 z"
       style="display:inline;opacity:1;fill:#000000;fill-opacity:0.52156863;fill-rule:nonzero;stroke:none;stroke-width:2.79999995;stroke-linecap:butt;stroke-linejoin:miter;stroke-miterlimit:4;stroke-dasharray:11.2, 22.4;stroke-dashoffset:0;stroke-opacity:1;filter:url(#filter4374)"
       inkscape:export-xdpi="71.487473"
       inkscape:export-ydpi="71.487473" />
    <path
       style="display:inline;opacity:1;fill:url(#linearGradient4282);fill-opacity:1;fill-rule:nonzero;stroke:none;stroke-width:2.79999995;stroke-linecap:butt;stroke-linejoin:miter;stroke-miterlimit:4;stroke-dasharray:11.2, 22.4;stroke-dashoffset:0;stroke-opacity:1"
       d="m 354.28573,391.29078 c 3.80688,1.00949 38.21427,15.53571 38.39284,18.03573 0,1.96426 -36.18713,17.32141 -38.39284,16.96427 l -2e-5,-2e-5 c -1.45687,-2.05209 -1.07143,-32.26188 0,-34.99996 z"
       id="rect4273"
       inkscape:connector-curvature="0"
       sodipodi:nodetypes="cccccc"
       inkscape:export-xdpi="71.487473"
       inkscape:export-ydpi="71.487473" />
  </g>
  <g
     inkscape:groupmode="layer"
     id="layer3"
     inkscape:label="reset icon"
     style="display:none">
    <path
       style="fill:#000000;fill-opacity:0.52156863;filter:url(#filter4913)"
       d="m 364.59975,427.29337 c -2.75587,-0.69732 -6.30506,-2.57028 -8.3434,-4.40292 -0.95843,-0.8617 -1.87008,-1.56674 -2.02591,-1.56674 -0.15582,0 -1.49303,1.18905 -2.97159,2.64235 l -2.68829,2.64234 0.20191,-2.04569 c 0.11104,-1.12512 0.30396,-4.37397 0.42872,-7.21968 0.12476,-2.84569 0.31968,-5.31608 0.43316,-5.48975 0.11348,-0.17369 3.505,-0.42105 7.53671,-0.54969 l 7.33037,-0.2339 -3.05572,3.07559 -3.05572,3.07561 1.18051,1.21901 c 1.5669,1.61802 4.81264,3.17807 7.60843,3.65696 9.64489,1.6521 18.59555,-7.18943 16.93447,-16.72802 -1.79759,-10.32253 -13.157,-15.52699 -22.25383,-10.19589 -3.3855,1.98404 -6.45333,6.56619 -6.9253,10.34375 l -0.22842,1.82816 -2.68829,0 -2.6883,0 0,-1.29217 c 0,-3.93615 2.29263,-8.82494 5.79611,-12.35961 4.14854,-4.18545 8.71779,-6.11312 14.49028,-6.11312 5.65337,0 10.31006,1.9348 14.32326,5.95117 6.28879,6.29373 7.63282,15.02426 3.57907,23.2489 -2.293,4.65227 -6.46582,8.25742 -11.5948,10.01747 -2.83644,0.97336 -8.46268,1.21973 -11.32343,0.49587 z"
       id="path4798"
       inkscape:connector-curvature="0"
       transform="matrix(1.0185657,0,0,1.0185657,-6.4079871,-7.1322231)"
       inkscape:export-xdpi="71.487473"
       inkscape:export-ydpi="71.487473" />
    <path
       style="display:inline;fill:url(#linearGradient4863-2);fill-opacity:1;stroke:none;stroke-width:0.40000001;stroke-miterlimit:4;stroke-dasharray:none;stroke-opacity:1"
       d="m 365.01358,428.13248 c -2.80704,-0.71027 -6.42212,-2.618 -8.4983,-4.48467 -0.97623,-0.87769 -1.9048,-1.59582 -2.06353,-1.59582 -0.15871,0 -1.52075,1.21112 -3.02676,2.6914 l -2.7382,2.6914 0.20566,-2.08367 c 0.1131,-1.14601 0.30961,-4.45517 0.43668,-7.35372 0.12708,-2.89852 0.32562,-5.41477 0.4412,-5.59167 0.11559,-0.17691 3.57008,-0.42887 7.67664,-0.55989 l 7.46646,-0.23825 -3.11245,3.13269 -3.11245,3.13272 1.20243,1.24164 c 1.59599,1.64806 4.90199,3.23707 7.74968,3.72485 9.82396,1.68277 18.94079,-7.32291 17.24887,-17.03859 -1.83096,-10.51417 -13.40127,-15.81526 -22.66699,-10.38518 -3.44835,2.02088 -6.57314,6.6881 -7.05387,10.53579 l -0.23266,1.8621 -2.7382,0 -2.73821,0 0,-1.31616 c 0,-4.00923 2.33519,-8.98878 5.90372,-12.58907 4.22556,-4.26316 8.87964,-6.22662 14.7593,-6.22662 5.75833,0 10.50147,1.97072 14.58918,6.06166 6.40555,6.41058 7.77453,15.30319 3.64552,23.68053 -2.33557,4.73864 -6.58586,8.41073 -11.81007,10.20345 -2.8891,0.99143 -8.61979,1.24238 -11.53365,0.50508 z"
       id="path4798-3"
       inkscape:connector-curvature="0"
       inkscape:export-xdpi="71.487473"
       inkscape:export-ydpi="71.487473" />
  </g>
</svg>
